<svg width="177" height="140" viewBox="0 0 177 140" fill="none" xmlns="http://www.w3.org/2000/svg">
<g filter="url(#filter0_i_1_20)">
<g filter="url(#filter1_i_1_20)">
<path d="M151.491 0C159.069 0.000160445 165.495 7.36019 166.575 17.2748L168.993 39.497C169.634 45.39 166.507 51.0343 161.067 53.388C144.92 60.3735 110.45 73.8896 86.2142 73.5252C62.2483 73.1649 30.7308 60.3592 15.6699 53.5774C10.3522 51.183 7.34005 45.6173 7.97115 39.8197L10.4253 17.2748C11.5046 7.36011 17.9309 0 25.5086 0H151.491Z" fill="#282828"/>
</g>
<g filter="url(#filter2_i_1_20)">
<path d="M86.2142 91.1511C107.812 91.5352 138.312 84.8948 156.799 80.263C165.259 78.1436 173.827 83.9022 174.771 92.5721L176.802 111.234C178.454 126.411 169.547 140 157.948 140H19.0522C7.45245 140 -1.45422 126.411 0.197797 111.234L2.24848 92.3924C3.1982 83.6664 11.8518 77.8965 20.3495 80.0951C37.5945 84.5568 65.1865 90.7771 86.2142 91.1511Z" fill="#171717"/>
</g>
</g>
<defs>
<filter id="filter0_i_1_20" x="0" y="0" width="177" height="140" filterUnits="userSpaceOnUse" color-interpolation-filters="sRGB">
<feFlood flood-opacity="0" result="BackgroundImageFix"/>
<feBlend mode="normal" in="SourceGraphic" in2="BackgroundImageFix" result="shape"/>
<feColorMatrix in="SourceAlpha" type="matrix" values="0 0 0 0 0 0 0 0 0 0 0 0 0 0 0 0 0 0 127 0" result="hardAlpha"/>
<feOffset/>
<feGaussianBlur stdDeviation="0.65"/>
<feComposite in2="hardAlpha" operator="arithmetic" k2="-1" k3="1"/>
<feColorMatrix type="matrix" values="0 0 0 0 1 0 0 0 0 1 0 0 0 0 1 0 0 0 0.56 0"/>
<feBlend mode="soft-light" in2="shape" result="effect1_innerShadow_1_20"/>
</filter>
<filter id="filter1_i_1_20" x="7.88826" y="0" width="161.188" height="73.5324" filterUnits="userSpaceOnUse" color-interpolation-filters="sRGB">
<feFlood flood-opacity="0" result="BackgroundImageFix"/>
<feBlend mode="normal" in="SourceGraphic" in2="BackgroundImageFix" result="shape"/>
<feColorMatrix in="SourceAlpha" type="matrix" values="0 0 0 0 0 0 0 0 0 0 0 0 0 0 0 0 0 0 127 0" result="hardAlpha"/>
<feOffset/>
<feGaussianBlur stdDeviation="2.5"/>
<feComposite in2="hardAlpha" operator="arithmetic" k2="-1" k3="1"/>
<feColorMatrix type="matrix" values="0 0 0 0 1 0 0 0 0 1 0 0 0 0 1 0 0 0 0.14 0"/>
<feBlend mode="normal" in2="shape" result="effect1_innerShadow_1_20"/>
</filter>
<filter id="filter2_i_1_20" x="0" y="79.626" width="177" height="60.374" filterUnits="userSpaceOnUse" color-interpolation-filters="sRGB">
<feFlood flood-opacity="0" result="BackgroundImageFix"/>
<feBlend mode="normal" in="SourceGraphic" in2="BackgroundImageFix" result="shape"/>
<feColorMatrix in="SourceAlpha" type="matrix" values="0 0 0 0 0 0 0 0 0 0 0 0 0 0 0 0 0 0 127 0" result="hardAlpha"/>
<feOffset/>
<feGaussianBlur stdDeviation="2.5"/>
<feComposite in2="hardAlpha" operator="arithmetic" k2="-1" k3="1"/>
<feColorMatrix type="matrix" values="0 0 0 0 1 0 0 0 0 1 0 0 0 0 1 0 0 0 0.14 0"/>
<feBlend mode="normal" in2="shape" result="effect1_innerShadow_1_20"/>
</filter>
</defs>
</svg>
