<svg width="234" height="234" viewBox="0 0 234 234" fill="none" xmlns="http://www.w3.org/2000/svg">
<rect width="234" height="234" rx="49" fill="white"/>
<g filter="url(#filter0_i_1_26)">
<g filter="url(#filter1_i_1_26)">
<path d="M179.491 47C187.069 47.0002 193.495 54.3602 194.575 64.2748L196.993 86.497C197.634 92.39 194.507 98.0343 189.067 100.388C172.92 107.373 138.45 120.89 114.214 120.525C90.2483 120.165 58.7308 107.359 43.6699 100.577C38.3522 98.183 35.34 92.6173 35.9711 86.8197L38.4253 64.2748C39.5046 54.3601 45.9309 47 53.5086 47H179.491Z" fill="#282828"/>
</g>
<g filter="url(#filter2_i_1_26)">
<path d="M114.214 138.151C135.812 138.535 166.312 131.895 184.799 127.263C193.259 125.144 201.827 130.902 202.771 139.572L204.802 158.234C206.454 173.411 197.547 187 185.948 187H47.0522C35.4525 187 26.5458 173.411 28.1978 158.234L30.2485 139.392C31.1982 130.666 39.8518 124.896 48.3495 127.095C65.5945 131.557 93.1865 137.777 114.214 138.151Z" fill="#171717"/>
</g>
</g>
<defs>
<filter id="filter0_i_1_26" x="28" y="47" width="177" height="140" filterUnits="userSpaceOnUse" color-interpolation-filters="sRGB">
<feFlood flood-opacity="0" result="BackgroundImageFix"/>
<feBlend mode="normal" in="SourceGraphic" in2="BackgroundImageFix" result="shape"/>
<feColorMatrix in="SourceAlpha" type="matrix" values="0 0 0 0 0 0 0 0 0 0 0 0 0 0 0 0 0 0 127 0" result="hardAlpha"/>
<feOffset/>
<feGaussianBlur stdDeviation="0.65"/>
<feComposite in2="hardAlpha" operator="arithmetic" k2="-1" k3="1"/>
<feColorMatrix type="matrix" values="0 0 0 0 1 0 0 0 0 1 0 0 0 0 1 0 0 0 0.56 0"/>
<feBlend mode="soft-light" in2="shape" result="effect1_innerShadow_1_26"/>
</filter>
<filter id="filter1_i_1_26" x="35.8883" y="47" width="161.188" height="73.5324" filterUnits="userSpaceOnUse" color-interpolation-filters="sRGB">
<feFlood flood-opacity="0" result="BackgroundImageFix"/>
<feBlend mode="normal" in="SourceGraphic" in2="BackgroundImageFix" result="shape"/>
<feColorMatrix in="SourceAlpha" type="matrix" values="0 0 0 0 0 0 0 0 0 0 0 0 0 0 0 0 0 0 127 0" result="hardAlpha"/>
<feOffset/>
<feGaussianBlur stdDeviation="2.5"/>
<feComposite in2="hardAlpha" operator="arithmetic" k2="-1" k3="1"/>
<feColorMatrix type="matrix" values="0 0 0 0 1 0 0 0 0 1 0 0 0 0 1 0 0 0 0.14 0"/>
<feBlend mode="normal" in2="shape" result="effect1_innerShadow_1_26"/>
</filter>
<filter id="filter2_i_1_26" x="28" y="126.626" width="177" height="60.374" filterUnits="userSpaceOnUse" color-interpolation-filters="sRGB">
<feFlood flood-opacity="0" result="BackgroundImageFix"/>
<feBlend mode="normal" in="SourceGraphic" in2="BackgroundImageFix" result="shape"/>
<feColorMatrix in="SourceAlpha" type="matrix" values="0 0 0 0 0 0 0 0 0 0 0 0 0 0 0 0 0 0 127 0" result="hardAlpha"/>
<feOffset/>
<feGaussianBlur stdDeviation="2.5"/>
<feComposite in2="hardAlpha" operator="arithmetic" k2="-1" k3="1"/>
<feColorMatrix type="matrix" values="0 0 0 0 1 0 0 0 0 1 0 0 0 0 1 0 0 0 0.14 0"/>
<feBlend mode="normal" in2="shape" result="effect1_innerShadow_1_26"/>
</filter>
</defs>
</svg>
